<svg width="1204" height="154" viewBox="0 0 1204 154" fill="none" xmlns="http://www.w3.org/2000/svg">
<g opacity="0.2" filter="url(#filter0_f_0_1)">
<path d="M1099.13 -539.854L1123.97 -515.012L688.16 -79.2052L384.124 210.214L663.319 -104.046L1099.13 -539.854Z" fill="url(#paint0_linear_0_1)" fill-opacity="0.54"/>
</g>
<g opacity="0.32" filter="url(#filter1_f_0_1)">
<path d="M892.041 -529.376L916.882 -504.535L481.075 -68.7276L177.038 220.691L456.234 -93.5686L892.041 -529.376Z" fill="url(#paint1_linear_0_1)" fill-opacity="0.54"/>
</g>
<g opacity="0.32" filter="url(#filter2_f_0_1)">
<path d="M812.535 -636L837.376 -611.159L401.569 -175.352L97.5326 114.067L376.728 -200.193L812.535 -636Z" fill="url(#paint2_linear_0_1)" fill-opacity="0.54"/>
</g>
<g opacity="0.2" filter="url(#filter3_f_0_1)">
<path d="M946.127 96.1465L970.968 120.988L535.161 556.795L231.124 846.214L510.32 531.954L946.127 96.1465Z" fill="url(#paint3_linear_0_1)" fill-opacity="0.64"/>
</g>
<g opacity="0.32" filter="url(#filter4_f_0_1)">
<path d="M739.042 106.624L763.883 131.465L328.076 567.272L24.0395 856.691L303.235 542.431L739.042 106.624Z" fill="url(#paint4_linear_0_1)" fill-opacity="0.64"/>
</g>
<g opacity="0.25" filter="url(#filter5_f_0_1)">
<ellipse cx="211" cy="148.5" rx="211" ry="148.5" transform="matrix(-1 0 0 1 396 240)" fill="white"/>
</g>
<defs>
<filter id="filter0_f_0_1" x="304.124" y="-619.854" width="899.843" height="910.067" filterUnits="userSpaceOnUse" color-interpolation-filters="sRGB">
<feFlood flood-opacity="0" result="BackgroundImageFix"/>
<feBlend mode="normal" in="SourceGraphic" in2="BackgroundImageFix" result="shape"/>
<feGaussianBlur stdDeviation="40" result="effect1_foregroundBlur_0_1"/>
</filter>
<filter id="filter1_f_0_1" x="97.0386" y="-609.376" width="899.843" height="910.067" filterUnits="userSpaceOnUse" color-interpolation-filters="sRGB">
<feFlood flood-opacity="0" result="BackgroundImageFix"/>
<feBlend mode="normal" in="SourceGraphic" in2="BackgroundImageFix" result="shape"/>
<feGaussianBlur stdDeviation="40" result="effect1_foregroundBlur_0_1"/>
</filter>
<filter id="filter2_f_0_1" x="17.5327" y="-716" width="899.843" height="910.067" filterUnits="userSpaceOnUse" color-interpolation-filters="sRGB">
<feFlood flood-opacity="0" result="BackgroundImageFix"/>
<feBlend mode="normal" in="SourceGraphic" in2="BackgroundImageFix" result="shape"/>
<feGaussianBlur stdDeviation="40" result="effect1_foregroundBlur_0_1"/>
</filter>
<filter id="filter3_f_0_1" x="151.125" y="16.1465" width="899.843" height="910.067" filterUnits="userSpaceOnUse" color-interpolation-filters="sRGB">
<feFlood flood-opacity="0" result="BackgroundImageFix"/>
<feBlend mode="normal" in="SourceGraphic" in2="BackgroundImageFix" result="shape"/>
<feGaussianBlur stdDeviation="40" result="effect1_foregroundBlur_0_1"/>
</filter>
<filter id="filter4_f_0_1" x="-55.9604" y="26.624" width="899.843" height="910.067" filterUnits="userSpaceOnUse" color-interpolation-filters="sRGB">
<feFlood flood-opacity="0" result="BackgroundImageFix"/>
<feBlend mode="normal" in="SourceGraphic" in2="BackgroundImageFix" result="shape"/>
<feGaussianBlur stdDeviation="40" result="effect1_foregroundBlur_0_1"/>
</filter>
<filter id="filter5_f_0_1" x="-526" y="-260" width="1422" height="1297" filterUnits="userSpaceOnUse" color-interpolation-filters="sRGB">
<feFlood flood-opacity="0" result="BackgroundImageFix"/>
<feBlend mode="normal" in="SourceGraphic" in2="BackgroundImageFix" result="shape"/>
<feGaussianBlur stdDeviation="250" result="effect1_foregroundBlur_0_1"/>
</filter>
<linearGradient id="paint0_linear_0_1" x1="1111.55" y1="-527.433" x2="675.74" y2="-91.6257" gradientUnits="userSpaceOnUse">
<stop stop-color="white"/>
<stop offset="1" stop-color="#D3D8DF"/>
</linearGradient>
<linearGradient id="paint1_linear_0_1" x1="904.462" y1="-516.955" x2="468.654" y2="-81.1481" gradientUnits="userSpaceOnUse">
<stop stop-color="white"/>
<stop offset="1" stop-color="#D3D8DF"/>
</linearGradient>
<linearGradient id="paint2_linear_0_1" x1="824.956" y1="-623.579" x2="389.148" y2="-187.772" gradientUnits="userSpaceOnUse">
<stop stop-color="white"/>
<stop offset="1" stop-color="#D3D8DF"/>
</linearGradient>
<linearGradient id="paint3_linear_0_1" x1="958.547" y1="108.567" x2="522.74" y2="544.374" gradientUnits="userSpaceOnUse">
<stop stop-color="white"/>
<stop offset="1" stop-color="#D3D8DF"/>
</linearGradient>
<linearGradient id="paint4_linear_0_1" x1="751.463" y1="119.045" x2="315.655" y2="554.852" gradientUnits="userSpaceOnUse">
<stop stop-color="white"/>
<stop offset="1" stop-color="#D3D8DF"/>
</linearGradient>
</defs>
</svg>
