<svg width="643" height="562" viewBox="0 0 643 562" fill="none" xmlns="http://www.w3.org/2000/svg">
<g clip-path="url(#clip0_6024_15219)">
<rect width="643" height="562" rx="16" fill="black" fill-opacity="0.6"/>
<g clip-path="url(#clip1_6024_15219)">
<path d="M203.244 251.14H152.6C152.6 251.14 143.787 251.761 137.764 245.102C137.226 263.528 152.6 266.808 152.6 266.808H203.244C203.244 266.808 218.618 263.528 218.08 245.102C212.057 251.761 203.244 251.14 203.244 251.14Z" fill="white"/>
<path d="M177.93 209C138.221 209 105.922 241.299 105.922 281.008C105.922 320.717 138.221 353.016 177.93 353.016C217.639 353.016 249.938 320.717 249.938 281.008C249.938 241.299 217.623 209 177.93 209ZM167.68 339.47V289.838H188.163V339.47C184.834 340.057 181.406 340.368 177.914 340.368C174.421 340.368 170.994 340.041 167.664 339.47H167.68ZM205.284 333.66V289.822H211.421C211.421 289.822 226.795 286.541 226.256 268.115C220.234 274.774 211.421 274.153 211.421 274.153H144.439C144.439 274.153 135.626 274.774 129.604 268.115C129.065 286.541 144.439 289.822 144.439 289.822H150.576V333.66C131.578 323.753 118.571 303.874 118.571 280.992C118.554 248.268 145.19 221.632 177.93 221.632C210.67 221.632 237.289 248.268 237.289 280.992C237.289 303.858 224.282 323.736 205.284 333.66Z" fill="white"/>
</g>
<path d="M422.42 233.709V271.72C422.42 276.748 424.924 278.658 428.909 278.658C432.894 278.658 435.398 276.748 435.398 271.72V233.709C435.398 228.681 432.894 226.77 428.909 226.77C424.924 226.77 422.42 228.681 422.42 233.709ZM409.896 271.016V234.413C409.896 223.15 416.613 216.714 428.909 216.714C441.204 216.714 447.921 223.15 447.921 234.413V271.016C447.921 282.279 441.204 288.714 428.909 288.714C416.613 288.714 409.896 282.279 409.896 271.016Z" fill="white"/>
<path d="M373.527 287.911V277.855C374.894 277.955 376.487 277.955 377.854 277.955C381.838 277.955 385.026 276.648 385.026 271.218V217.52H397.549V270.413C397.549 284.492 389.011 288.112 379.561 288.112C377.284 288.112 375.577 288.112 373.527 287.911Z" fill="white"/>
<path d="M338.457 233.709V271.72C338.457 276.748 340.961 278.658 344.946 278.658C348.931 278.658 351.435 276.748 351.435 271.72V233.709C351.435 228.681 348.931 226.77 344.946 226.77C340.961 226.77 338.457 228.681 338.457 233.709ZM325.934 271.016V234.413C325.934 223.15 332.651 216.714 344.946 216.714C357.242 216.714 363.959 223.15 363.959 234.413V271.016C363.959 282.279 357.242 288.714 344.946 288.714C332.651 288.714 325.934 282.279 325.934 271.016Z" fill="white"/>
<path d="M275.636 287.911V217.52H295.446C307.969 217.52 314.117 223.654 314.117 234.916V270.514C314.117 281.777 307.969 287.911 295.446 287.911H275.636ZM295.218 227.575H288.159V277.855H295.218C299.203 277.855 301.593 276.045 301.593 271.017V234.413C301.593 229.385 299.203 227.575 295.218 227.575Z" fill="white"/>
<path d="M512.356 350.429V312.696H537.078V316.882H517.052V329.045H536.682V333.231H517.052V346.243H537.078V350.429H512.356Z" fill="white"/>
<path d="M489.427 350.429V316.882H477.491V312.696H506.116V316.882H494.123V350.429H489.427Z" fill="white"/>
<path d="M440.482 335.777V312.696H445.177V335.664C445.177 342.566 448.911 346.922 455.869 346.922C462.828 346.922 466.561 342.566 466.561 335.664V312.696H471.257V335.72C471.257 345.111 466.109 351.108 455.869 351.108C445.63 351.108 440.482 345.055 440.482 335.777Z" fill="white"/>
<path d="M407.279 350.429V312.696H422.44C430.021 312.696 434.264 317.9 434.264 324.067C434.264 330.233 429.908 335.438 422.44 335.438H411.975V350.429H407.279ZM429.399 324.067C429.399 319.824 426.344 316.882 421.875 316.882H411.975V331.251H421.875C426.344 331.251 429.399 328.31 429.399 324.067Z" fill="white"/>
<path d="M393.782 350.429V319.032L380.94 350.429H379.017L366.232 319.032V350.429H361.536V312.696H368.268L379.978 341.434L391.745 312.696H398.477V350.429H393.782Z" fill="white"/>
<path d="M316.751 331.591C316.751 320.446 324.275 312.074 335.477 312.074C346.621 312.074 354.202 320.446 354.202 331.591C354.202 342.735 346.621 351.108 335.477 351.108C324.275 351.108 316.751 342.735 316.751 331.591ZM349.337 331.591C349.337 322.766 343.906 316.26 335.477 316.26C326.991 316.26 321.617 322.766 321.617 331.591C321.617 340.359 326.991 346.922 335.477 346.922C343.906 346.922 349.337 340.359 349.337 331.591Z" fill="white"/>
<path d="M297.756 351.108C287.064 351.108 278.521 343.188 278.521 331.591C278.521 319.994 287.064 312.074 297.756 312.074C304.601 312.074 309.24 315.298 312.238 319.541L308.278 321.747C306.128 318.579 302.225 316.26 297.756 316.26C289.666 316.26 283.387 322.596 283.387 331.591C283.387 340.529 289.666 346.922 297.756 346.922C302.225 346.922 306.128 344.659 308.278 341.434L312.295 343.641C309.127 347.94 304.601 351.108 297.756 351.108Z" fill="white"/>
<g opacity="0.32" filter="url(#filter0_f_6024_15219)">
<path d="M1005.53 -6L1030.38 18.841L594.568 454.648L290.532 744.067L569.727 429.807L1005.53 -6Z" fill="url(#paint0_linear_6024_15219)" fill-opacity="0.64"/>
</g>
<g opacity="0.32" filter="url(#filter1_f_6024_15219)">
<path d="M-466 -463.936L-441.385 -489L-1.65303 -57.1529L290.504 244.253L-26.2683 -32.0882L-466 -463.936Z" fill="url(#paint1_linear_6024_15219)" fill-opacity="0.64"/>
</g>
</g>
<rect x="0.5" y="0.5" width="642" height="561" rx="15.5" stroke="url(#paint2_linear_6024_15219)"/>
<defs>
<filter id="filter0_f_6024_15219" x="210.532" y="-86" width="899.843" height="910.067" filterUnits="userSpaceOnUse" color-interpolation-filters="sRGB">
<feFlood flood-opacity="0" result="BackgroundImageFix"/>
<feBlend mode="normal" in="SourceGraphic" in2="BackgroundImageFix" result="shape"/>
<feGaussianBlur stdDeviation="40" result="effect1_foregroundBlur_6024_15219"/>
</filter>
<filter id="filter1_f_6024_15219" x="-546" y="-569" width="916.504" height="893.253" filterUnits="userSpaceOnUse" color-interpolation-filters="sRGB">
<feFlood flood-opacity="0" result="BackgroundImageFix"/>
<feBlend mode="normal" in="SourceGraphic" in2="BackgroundImageFix" result="shape"/>
<feGaussianBlur stdDeviation="40" result="effect1_foregroundBlur_6024_15219"/>
</filter>
<linearGradient id="paint0_linear_6024_15219" x1="1017.96" y1="6.42051" x2="582.148" y2="442.228" gradientUnits="userSpaceOnUse">
<stop stop-color="white"/>
<stop offset="1" stop-color="#D3D8DF"/>
</linearGradient>
<linearGradient id="paint1_linear_6024_15219" x1="-453.692" y1="-476.468" x2="-13.9607" y2="-44.6205" gradientUnits="userSpaceOnUse">
<stop stop-color="white"/>
<stop offset="1" stop-color="#D3D8DF"/>
</linearGradient>
<linearGradient id="paint2_linear_6024_15219" x1="321.5" y1="0" x2="321.5" y2="562" gradientUnits="userSpaceOnUse">
<stop stop-color="#242427"/>
<stop offset="1" stop-color="#242427" stop-opacity="0"/>
</linearGradient>
<clipPath id="clip0_6024_15219">
<rect width="643" height="562" rx="16" fill="white"/>
</clipPath>
<clipPath id="clip1_6024_15219">
<rect width="144" height="144" fill="white" transform="translate(105.922 209)"/>
</clipPath>
</defs>
</svg>
