<svg width="34" height="34" viewBox="0 0 34 34" fill="none" xmlns="http://www.w3.org/2000/svg">
<path d="M10 10V24H24M24 10L19.3333 11.1667M18.6435 12.8389L20.7987 15.7128M20.1111 17.3889L16.2222 18.9444M13.1111 19.3333C13.1111 19.7459 13.275 20.1416 13.5667 20.4333C13.8584 20.725 14.2541 20.8889 14.6667 20.8889C15.0792 20.8889 15.4749 20.725 15.7666 20.4333C16.0583 20.1416 16.2222 19.7459 16.2222 19.3333C16.2222 18.9208 16.0583 18.5251 15.7666 18.2334C15.4749 17.9417 15.0792 17.7778 14.6667 17.7778C14.2541 17.7778 13.8584 17.9417 13.5667 18.2334C13.275 18.5251 13.1111 18.9208 13.1111 19.3333ZM16.2222 11.5556C16.2222 11.9681 16.3861 12.3638 16.6778 12.6555C16.9696 12.9472 17.3652 13.1111 17.7778 13.1111C18.1903 13.1111 18.586 12.9472 18.8777 12.6555C19.1694 12.3638 19.3333 11.9681 19.3333 11.5556C19.3333 11.143 19.1694 10.7473 18.8777 10.4556C18.586 10.1639 18.1903 10 17.7778 10C17.3652 10 16.9696 10.1639 16.6778 10.4556C16.3861 10.7473 16.2222 11.143 16.2222 11.5556ZM20.1111 17C20.1111 17.4126 20.275 17.8082 20.5667 18.0999C20.8584 18.3917 21.2541 18.5556 21.6667 18.5556C22.0792 18.5556 22.4749 18.3917 22.7666 18.0999C23.0583 17.8082 23.2222 17.4126 23.2222 17C23.2222 16.5874 23.0583 16.1918 22.7666 15.9001C22.4749 15.6083 22.0792 15.4444 21.6667 15.4444C21.2541 15.4444 20.8584 15.6083 20.5667 15.9001C20.275 16.1918 20.1111 16.5874 20.1111 17Z" stroke="white" stroke-width="1.5" stroke-linecap="round" stroke-linejoin="round"/>
</svg>
