<svg width="48" height="48" viewBox="0 0 48 48" fill="none" xmlns="http://www.w3.org/2000/svg">
<rect x="0.5" y="0.5" width="47" height="47" rx="23.5" fill="black"/>
<rect x="0.5" y="0.5" width="47" height="47" rx="23.5" stroke="#313335"/>
<g clip-path="url(#clip0_8008_1121)">
<path fill-rule="evenodd" clip-rule="evenodd" d="M30.5625 31H17.4382C16.7318 31 16.2102 30.303 16.4766 29.662C17.7128 26.698 20.6169 25 23.9998 25C27.3838 25 30.288 26.698 31.5241 29.662C31.7906 30.303 31.2689 31 30.5625 31ZM19.9167 19C19.9167 16.794 21.749 15 23.9998 15C26.2517 15 28.083 16.794 28.083 19C28.083 21.206 26.2517 23 23.9998 23C21.749 23 19.9167 21.206 19.9167 19ZM33.9557 30.636C33.2136 27.277 30.8923 24.798 27.837 23.673C29.456 22.396 30.4002 20.3309 30.0532 18.0699C29.651 15.4469 27.4236 13.348 24.7348 13.042C21.0232 12.619 17.8751 15.449 17.8751 19C17.8751 20.89 18.7693 22.574 20.1637 23.673C17.1074 24.798 14.7872 27.277 14.044 30.636C13.7745 31.857 14.779 33 16.054 33H31.9457C33.2217 33 34.2262 31.857 33.9557 30.636Z" fill="white"/>
<g clip-path="url(#clip1_8008_1121)">
<!-- <path fill-rule="evenodd" clip-rule="evenodd" d="M291.502 351.999H-233.473C-261.729 351.999 -282.594 324.119 -271.937 298.479C-222.489 179.919 -106.323 111.999 28.994 111.999C164.352 111.999 280.518 179.919 329.966 298.479C340.623 324.119 319.758 351.999 291.502 351.999ZM-134.333 -128.001C-134.333 -216.241 -61.0402 -288.001 28.994 -288.001C119.069 -288.001 192.321 -216.241 192.321 -128.001C192.321 -39.7606 119.069 31.9994 28.994 31.9994C-61.0402 31.9994 -134.333 -39.7606 -134.333 -128.001ZM427.227 337.439C397.542 203.079 304.691 103.918 182.481 58.9183C247.24 7.83835 285.01 -74.7628 271.127 -165.203C255.039 -270.123 165.944 -354.081 58.3931 -366.321C-90.0715 -383.241 -215.997 -270.041 -215.997 -128.001C-215.997 -52.4006 -180.228 14.9583 -124.452 58.9183C-246.703 103.918 -339.513 203.079 -369.239 337.439C-380.019 386.279 -339.84 431.999 -288.841 431.999H346.829C397.869 431.999 438.047 386.279 427.227 337.439Z" fill="black"/> -->
</g>
</g>
<defs>
</defs>
</svg>
