<svg width="36" height="37" viewBox="0 0 36 37" fill="none" xmlns="http://www.w3.org/2000/svg">
<path d="M18 17.375C19.4918 17.375 20.9226 17.9676 21.9775 19.0225C23.0324 20.0774 23.625 21.5082 23.625 23V29.75H12.375V23C12.375 21.5082 12.9676 20.0774 14.0225 19.0225C15.0774 17.9676 16.5082 17.375 18 17.375ZM10.449 20.7567C10.27 21.3606 10.1642 21.9839 10.134 22.613L10.125 23V29.75H6.75V24.6875C6.74978 23.7173 7.10778 22.7811 7.75534 22.0586C8.4029 21.3361 9.29441 20.8781 10.2589 20.7725L10.4501 20.7567H10.449ZM25.551 20.7567C26.5521 20.8178 27.4923 21.2584 28.1797 21.9889C28.867 22.7193 29.2499 23.6845 29.25 24.6875V29.75H25.875V23C25.875 22.2204 25.7625 21.4677 25.551 20.7567ZM10.6875 14C11.4334 14 12.1488 14.2963 12.6762 14.8238C13.2037 15.3512 13.5 16.0666 13.5 16.8125C13.5 17.5584 13.2037 18.2738 12.6762 18.8012C12.1488 19.3287 11.4334 19.625 10.6875 19.625C9.94158 19.625 9.22621 19.3287 8.69876 18.8012C8.17132 18.2738 7.875 17.5584 7.875 16.8125C7.875 16.0666 8.17132 15.3512 8.69876 14.8238C9.22621 14.2963 9.94158 14 10.6875 14ZM25.3125 14C26.0584 14 26.7738 14.2963 27.3012 14.8238C27.8287 15.3512 28.125 16.0666 28.125 16.8125C28.125 17.5584 27.8287 18.2738 27.3012 18.8012C26.7738 19.3287 26.0584 19.625 25.3125 19.625C24.5666 19.625 23.8512 19.3287 23.3238 18.8012C22.7963 18.2738 22.5 17.5584 22.5 16.8125C22.5 16.0666 22.7963 15.3512 23.3238 14.8238C23.8512 14.2963 24.5666 14 25.3125 14ZM18 7.25C19.1935 7.25 20.3381 7.72411 21.182 8.56802C22.0259 9.41193 22.5 10.5565 22.5 11.75C22.5 12.9435 22.0259 14.0881 21.182 14.932C20.3381 15.7759 19.1935 16.25 18 16.25C16.8065 16.25 15.6619 15.7759 14.818 14.932C13.9741 14.0881 13.5 12.9435 13.5 11.75C13.5 10.5565 13.9741 9.41193 14.818 8.56802C15.6619 7.72411 16.8065 7.25 18 7.25Z" fill="#D1D1D1"/>
</svg>
